<svg version="1" xmlns="http://www.w3.org/2000/svg" width="682.667" height="682.667" viewBox="0 0 512.000000 512.000000"><path d="M381 68.5c-24 4.8-43.1 15-62 33.2-10.7 10.2-18.7 20.7-25.5 33.4-5.9 11.2-8.8 19.6-12.1 35.4-.6 3-.7 20.5-.1 24.7.8 5 2.5 11.5 4.3 16.1.7 2 1.4 4 1.4 4.4 0 .3-46.8 47.3-104 104.5l-104 104 15.1 15.1 15.1 15 73.4-73.4 73.4-73.4 73.4 73.4 73.4 73.4 15.1-15.1 15.1-15-73-73c-40.2-40.2-73-73.4-73-73.9 0-.4 6.9-7.7 15.3-16l15.2-15.2 6.5 2.3c21.7 7.9 53.3 4 76.3-9.6 2.6-1.5 5.2-2.8 5.7-2.8.4 0 1-.3 1.2-.8.2-.4 3-2.5 6.3-4.7 8.2-5.5 26-23.5 31.8-32.3 10-15 17-31.4 19.7-46.3 1.6-8.7 1.6-24.1 0-31.4-.8-3.3-1.4-6.2-1.5-6.5-1-4.6-5.3-13.7-8.8-19-8.8-13-22.5-21.9-41.1-26.7-4.5-1.2-26.4-1-32.6.2z"/><path d="M78.8 80c-25.3 28.9-26.8 74.3-3.5 105.5 4.2 5.8 96.1 98.5 97.5 98.5.4 0 14.1-13.4 30.5-29.8l29.8-29.9-74.6-74.6C117.4 108.6 83.7 75 83.5 75c-.2 0-2.3 2.2-4.7 5z"/></svg>